<svg xmlns="http://www.w3.org/2000/svg" xmlns:xlink="http://www.w3.org/1999/xlink" contentStyleType="text/css" data-diagram-type="CLASS" height="551px" preserveAspectRatio="none" style="width:594px;height:551px;background:#FFFFFF;" version="1.1" viewBox="0 0 594 551" width="594px" zoomAndPan="magnify"><?plantuml 1.2026.5?><defs/><g><g class="title" data-source-line="5"><text fill="#000000" font-family="sans-serif" font-size="14" font-weight="700" lengthAdjust="spacing" textLength="394.6318" x="96.5394" y="22.9951">Bi&#7875;u &#273;&#7891; th&#7921;c th&#7875; - Module T&#224;i kho&#7843;n &amp; Th&#224;nh vi&#234;n</text></g><!--class User--><g class="entity" data-qualified-name="User" data-source-line="7" id="ent0001"><rect fill="#7AD2FF" height="145.7813" rx="2.5" ry="2.5" style="stroke:#000000;stroke-width:0.5;" width="126.0508" x="245.97" y="44.2969"/><ellipse cx="288.9333" cy="60.2969" fill="#ADD1B2" rx="11" ry="11" style="stroke:#181818;stroke-width:1;"/><path d="M291.902,65.9375 Q291.3239,66.2344 290.6833,66.375 Q290.0427,66.5313 289.3395,66.5313 Q286.8395,66.5313 285.5114,64.8906 Q284.1989,63.2344 284.1989,60.1094 Q284.1989,56.9844 285.5114,55.3281 Q286.8395,53.6719 289.3395,53.6719 Q290.0427,53.6719 290.6833,53.8281 Q291.3395,53.9844 291.902,54.2813 L291.902,57 Q291.277,56.4219 290.6833,56.1563 Q290.0895,55.875 289.4645,55.875 Q288.1208,55.875 287.4333,56.9531 Q286.7458,58.0156 286.7458,60.1094 Q286.7458,62.2031 287.4333,63.2813 Q288.1208,64.3438 289.4645,64.3438 Q290.0895,64.3438 290.6833,64.0781 Q291.277,63.7969 291.902,63.2188 L291.902,65.9375 Z " fill="#000000"/><text fill="#000000" font-family="sans-serif" font-size="14" lengthAdjust="spacing" textLength="31.9102" x="309.1473" y="65.1436">User</text><line style="stroke:#000000;stroke-width:0.5;" x1="246.97" x2="371.0208" y1="76.2969" y2="76.2969"/><g data-visibility-modifier="PRIVATE_FIELD"><rect fill="none" height="6" style="stroke:#C82930;stroke-width:1;" width="6" x="253.97" y="86.9453"/></g><text fill="#000000" font-family="sans-serif" font-size="14" lengthAdjust="spacing" textLength="62.8838" x="265.97" y="93.292">fullName</text><g data-visibility-modifier="PRIVATE_FIELD"><rect fill="none" height="6" style="stroke:#C82930;stroke-width:1;" width="6" x="253.97" y="103.2422"/></g><text fill="#000000" font-family="sans-serif" font-size="14" lengthAdjust="spacing" textLength="100.0508" x="265.97" y="109.5889">phoneNumber</text><g data-visibility-modifier="PRIVATE_FIELD"><rect fill="none" height="6" style="stroke:#C82930;stroke-width:1;" width="6" x="253.97" y="119.5391"/></g><text fill="#000000" font-family="sans-serif" font-size="14" lengthAdjust="spacing" textLength="38.6094" x="265.97" y="125.8857">email</text><g data-visibility-modifier="PRIVATE_FIELD"><rect fill="none" height="6" style="stroke:#C82930;stroke-width:1;" width="6" x="253.97" y="135.8359"/></g><text fill="#000000" font-family="sans-serif" font-size="14" lengthAdjust="spacing" textLength="66.7119" x="265.97" y="142.1826">password</text><g data-visibility-modifier="PRIVATE_FIELD"><rect fill="none" height="6" style="stroke:#C82930;stroke-width:1;" width="6" x="253.97" y="152.1328"/></g><text fill="#000000" font-family="sans-serif" font-size="14" lengthAdjust="spacing" textLength="26.8242" x="265.97" y="158.4795">role</text><g data-visibility-modifier="PRIVATE_FIELD"><rect fill="none" height="6" style="stroke:#C82930;stroke-width:1;" width="6" x="253.97" y="168.4297"/></g><text fill="#000000" font-family="sans-serif" font-size="14" lengthAdjust="spacing" textLength="68.7012" x="265.97" y="174.7764">createdAt</text><line style="stroke:#000000;stroke-width:0.5;" x1="246.97" x2="371.0208" y1="182.0781" y2="182.0781"/></g><!--class Client--><g class="entity" data-qualified-name="Client" data-source-line="15" id="ent0002"><rect fill="#7AD2FF" height="80.5938" rx="2.5" ry="2.5" style="stroke:#000000;stroke-width:0.5;" width="115.5371" x="42.23" y="266.3769"/><ellipse cx="76.5831" cy="282.3769" fill="#ADD1B2" rx="11" ry="11" style="stroke:#181818;stroke-width:1;"/><path d="M79.5518,288.0175 Q78.9737,288.3144 78.3331,288.455 Q77.6925,288.6113 76.9893,288.6113 Q74.4893,288.6113 73.1612,286.9706 Q71.8487,285.3144 71.8487,282.1894 Q71.8487,279.0644 73.1612,277.4081 Q74.4893,275.7519 76.9893,275.7519 Q77.6925,275.7519 78.3331,275.9081 Q78.9893,276.0644 79.5518,276.3613 L79.5518,279.08 Q78.9268,278.5019 78.3331,278.2363 Q77.7393,277.955 77.1143,277.955 Q75.7706,277.955 75.0831,279.0331 Q74.3956,280.0956 74.3956,282.1894 Q74.3956,284.2831 75.0831,285.3613 Q75.7706,286.4238 77.1143,286.4238 Q77.7393,286.4238 78.3331,286.1581 Q78.9268,285.8769 79.5518,285.2988 L79.5518,288.0175 Z " fill="#000000"/><text fill="#000000" font-family="sans-serif" font-size="14" lengthAdjust="spacing" textLength="40.5303" x="94.8838" y="287.2236">Client</text><line style="stroke:#000000;stroke-width:0.5;" x1="43.23" x2="156.7671" y1="298.3769" y2="298.3769"/><g data-visibility-modifier="PRIVATE_FIELD"><rect fill="none" height="6" style="stroke:#C82930;stroke-width:1;" width="6" x="50.23" y="309.0253"/></g><text fill="#000000" font-family="sans-serif" font-size="14" lengthAdjust="spacing" textLength="89.5371" x="62.23" y="315.372">loyaltyPoints</text><g data-visibility-modifier="PRIVATE_FIELD"><rect fill="none" height="6" style="stroke:#C82930;stroke-width:1;" width="6" x="50.23" y="325.3222"/></g><text fill="#000000" font-family="sans-serif" font-size="14" lengthAdjust="spacing" textLength="57.7842" x="62.23" y="331.6689">joinedAt</text><line style="stroke:#000000;stroke-width:0.5;" x1="43.23" x2="156.7671" y1="338.9706" y2="338.9706"/></g><!--class Employee--><g class="entity" data-qualified-name="Employee" data-source-line="19" id="ent0003"><rect fill="#7AD2FF" height="96.8906" rx="2.5" ry="2.5" style="stroke:#000000;stroke-width:0.5;" width="101.3369" x="192.33" y="258.2269"/><ellipse cx="207.33" cy="274.2269" fill="#ADD1B2" rx="11" ry="11" style="stroke:#181818;stroke-width:1;"/><path d="M210.2988,279.8675 Q209.7206,280.1644 209.08,280.305 Q208.4394,280.4613 207.7363,280.4613 Q205.2363,280.4613 203.9081,278.8206 Q202.5956,277.1644 202.5956,274.0394 Q202.5956,270.9144 203.9081,269.2581 Q205.2363,267.6019 207.7363,267.6019 Q208.4394,267.6019 209.08,267.7581 Q209.7363,267.9144 210.2988,268.2113 L210.2988,270.93 Q209.6738,270.3519 209.08,270.0863 Q208.4863,269.805 207.8613,269.805 Q206.5175,269.805 205.83,270.8831 Q205.1425,271.9456 205.1425,274.0394 Q205.1425,276.1331 205.83,277.2113 Q206.5175,278.2738 207.8613,278.2738 Q208.4863,278.2738 209.08,278.0081 Q209.6738,277.7269 210.2988,277.1488 L210.2988,279.8675 Z " fill="#000000"/><text fill="#000000" font-family="sans-serif" font-size="14" lengthAdjust="spacing" textLength="69.3369" x="221.33" y="279.0736">Employee</text><line style="stroke:#000000;stroke-width:0.5;" x1="193.33" x2="292.6669" y1="290.2269" y2="290.2269"/><g data-visibility-modifier="PRIVATE_FIELD"><rect fill="none" height="6" style="stroke:#C82930;stroke-width:1;" width="6" x="200.33" y="300.8753"/></g><text fill="#000000" font-family="sans-serif" font-size="14" lengthAdjust="spacing" textLength="62.0156" x="212.33" y="307.222">staffRole</text><g data-visibility-modifier="PRIVATE_FIELD"><rect fill="none" height="6" style="stroke:#C82930;stroke-width:1;" width="6" x="200.33" y="317.1722"/></g><text fill="#000000" font-family="sans-serif" font-size="14" lengthAdjust="spacing" textLength="48.665" x="212.33" y="323.5189">branch</text><g data-visibility-modifier="PRIVATE_FIELD"><rect fill="none" height="6" style="stroke:#C82930;stroke-width:1;" width="6" x="200.33" y="333.4691"/></g><text fill="#000000" font-family="sans-serif" font-size="14" lengthAdjust="spacing" textLength="43.0186" x="212.33" y="339.8157">status</text><line style="stroke:#000000;stroke-width:0.5;" x1="193.33" x2="292.6669" y1="347.1175" y2="347.1175"/></g><!--class MembershipTier--><g class="entity" data-qualified-name="MembershipTier" data-source-line="24" id="ent0004"><rect fill="#7AD2FF" height="113.1875" rx="2.5" ry="2.5" style="stroke:#000000;stroke-width:0.5;" width="145.3398" x="27.33" y="423.2669"/><ellipse cx="42.33" cy="439.2669" fill="#ADD1B2" rx="11" ry="11" style="stroke:#181818;stroke-width:1;"/><path d="M45.2988,444.9075 Q44.7206,445.2044 44.08,445.345 Q43.4394,445.5013 42.7363,445.5013 Q40.2363,445.5013 38.9081,443.8606 Q37.5956,442.2044 37.5956,439.0794 Q37.5956,435.9544 38.9081,434.2981 Q40.2363,432.6419 42.7363,432.6419 Q43.4394,432.6419 44.08,432.7981 Q44.7363,432.9544 45.2988,433.2513 L45.2988,435.97 Q44.6738,435.3919 44.08,435.1263 Q43.4863,434.845 42.8613,434.845 Q41.5175,434.845 40.83,435.9231 Q40.1425,436.9856 40.1425,439.0794 Q40.1425,441.1731 40.83,442.2513 Q41.5175,443.3138 42.8613,443.3138 Q43.4863,443.3138 44.08,443.0481 Q44.6738,442.7669 45.2988,442.1888 L45.2988,444.9075 Z " fill="#000000"/><text fill="#000000" font-family="sans-serif" font-size="14" lengthAdjust="spacing" textLength="113.3398" x="56.33" y="444.1136">MembershipTier</text><line style="stroke:#000000;stroke-width:0.5;" x1="28.33" x2="171.6698" y1="455.2669" y2="455.2669"/><g data-visibility-modifier="PRIVATE_FIELD"><rect fill="none" height="6" style="stroke:#C82930;stroke-width:1;" width="6" x="35.33" y="465.9153"/></g><text fill="#000000" font-family="sans-serif" font-size="14" lengthAdjust="spacing" textLength="65.0508" x="47.33" y="472.262">tierName</text><g data-visibility-modifier="PRIVATE_FIELD"><rect fill="none" height="6" style="stroke:#C82930;stroke-width:1;" width="6" x="35.33" y="482.2122"/></g><text fill="#000000" font-family="sans-serif" font-size="14" lengthAdjust="spacing" textLength="68.9541" x="47.33" y="488.5589">minPoints</text><g data-visibility-modifier="PRIVATE_FIELD"><rect fill="none" height="6" style="stroke:#C82930;stroke-width:1;" width="6" x="35.33" y="498.5091"/></g><text fill="#000000" font-family="sans-serif" font-size="14" lengthAdjust="spacing" textLength="77.8408" x="47.33" y="504.8557">description</text><g data-visibility-modifier="PRIVATE_FIELD"><rect fill="none" height="6" style="stroke:#C82930;stroke-width:1;" width="6" x="35.33" y="514.8059"/></g><text fill="#000000" font-family="sans-serif" font-size="14" lengthAdjust="spacing" textLength="91.9775" x="47.33" y="521.1526">discountRate</text><line style="stroke:#000000;stroke-width:0.5;" x1="28.33" x2="171.6698" y1="528.4544" y2="528.4544"/></g><!--class OTP--><g class="entity" data-qualified-name="OTP" data-source-line="30" id="ent0005"><rect fill="#7AD2FF" height="113.1875" rx="2.5" ry="2.5" style="stroke:#000000;stroke-width:0.5;" width="92.4043" x="328.8" y="250.0769"/><ellipse cx="358.3758" cy="266.0769" fill="#ADD1B2" rx="11" ry="11" style="stroke:#181818;stroke-width:1;"/><path d="M361.3445,271.7175 Q360.7664,272.0144 360.1258,272.155 Q359.4852,272.3113 358.782,272.3113 Q356.282,272.3113 354.9539,270.6706 Q353.6414,269.0144 353.6414,265.8894 Q353.6414,262.7644 354.9539,261.1081 Q356.282,259.4519 358.782,259.4519 Q359.4852,259.4519 360.1258,259.6081 Q360.782,259.7644 361.3445,260.0613 L361.3445,262.78 Q360.7195,262.2019 360.1258,261.9363 Q359.532,261.655 358.907,261.655 Q357.5633,261.655 356.8758,262.7331 Q356.1883,263.7956 356.1883,265.8894 Q356.1883,267.9831 356.8758,269.0613 Q357.5633,270.1238 358.907,270.1238 Q359.532,270.1238 360.1258,269.8581 Q360.7195,269.5769 361.3445,268.9988 L361.3445,271.7175 Z " fill="#000000"/><text fill="#000000" font-family="sans-serif" font-size="14" lengthAdjust="spacing" textLength="28.0137" x="375.6148" y="270.9236">OTP</text><line style="stroke:#000000;stroke-width:0.5;" x1="329.8" x2="420.2043" y1="282.0769" y2="282.0769"/><g data-visibility-modifier="PRIVATE_FIELD"><rect fill="none" height="6" style="stroke:#C82930;stroke-width:1;" width="6" x="336.8" y="292.7253"/></g><text fill="#000000" font-family="sans-serif" font-size="14" lengthAdjust="spacing" textLength="58.7822" x="348.8" y="299.072">otpCode</text><g data-visibility-modifier="PRIVATE_FIELD"><rect fill="none" height="6" style="stroke:#C82930;stroke-width:1;" width="6" x="336.8" y="309.0222"/></g><text fill="#000000" font-family="sans-serif" font-size="14" lengthAdjust="spacing" textLength="31.2744" x="348.8" y="315.3689">type</text><g data-visibility-modifier="PRIVATE_FIELD"><rect fill="none" height="6" style="stroke:#C82930;stroke-width:1;" width="6" x="336.8" y="325.3191"/></g><text fill="#000000" font-family="sans-serif" font-size="14" lengthAdjust="spacing" textLength="66.4043" x="348.8" y="331.6657">expiresAt</text><g data-visibility-modifier="PRIVATE_FIELD"><rect fill="none" height="6" style="stroke:#C82930;stroke-width:1;" width="6" x="336.8" y="341.6159"/></g><text fill="#000000" font-family="sans-serif" font-size="14" lengthAdjust="spacing" textLength="52.8623" x="348.8" y="347.9626">verified</text><line style="stroke:#000000;stroke-width:0.5;" x1="329.8" x2="420.2043" y1="355.2644" y2="355.2644"/></g><!--class LoginSession--><g class="entity" data-qualified-name="LoginSession" data-source-line="36" id="ent0006"><rect fill="#7AD2FF" height="113.1875" rx="2.5" ry="2.5" style="stroke:#000000;stroke-width:0.5;" width="123.4307" x="456.28" y="250.0769"/><ellipse cx="471.28" cy="266.0769" fill="#ADD1B2" rx="11" ry="11" style="stroke:#181818;stroke-width:1;"/><path d="M474.2488,271.7175 Q473.6706,272.0144 473.03,272.155 Q472.3894,272.3113 471.6863,272.3113 Q469.1863,272.3113 467.8581,270.6706 Q466.5456,269.0144 466.5456,265.8894 Q466.5456,262.7644 467.8581,261.1081 Q469.1863,259.4519 471.6863,259.4519 Q472.3894,259.4519 473.03,259.6081 Q473.6863,259.7644 474.2488,260.0613 L474.2488,262.78 Q473.6238,262.2019 473.03,261.9363 Q472.4363,261.655 471.8113,261.655 Q470.4675,261.655 469.78,262.7331 Q469.0925,263.7956 469.0925,265.8894 Q469.0925,267.9831 469.78,269.0613 Q470.4675,270.1238 471.8113,270.1238 Q472.4363,270.1238 473.03,269.8581 Q473.6238,269.5769 474.2488,268.9988 L474.2488,271.7175 Z " fill="#000000"/><text fill="#000000" font-family="sans-serif" font-size="14" lengthAdjust="spacing" textLength="91.4307" x="485.28" y="270.9236">LoginSession</text><line style="stroke:#000000;stroke-width:0.5;" x1="457.28" x2="578.7107" y1="282.0769" y2="282.0769"/><g data-visibility-modifier="PRIVATE_FIELD"><rect fill="none" height="6" style="stroke:#C82930;stroke-width:1;" width="6" x="464.28" y="292.7253"/></g><text fill="#000000" font-family="sans-serif" font-size="14" lengthAdjust="spacing" textLength="94.5342" x="476.28" y="299.072">sessionToken</text><g data-visibility-modifier="PRIVATE_FIELD"><rect fill="none" height="6" style="stroke:#C82930;stroke-width:1;" width="6" x="464.28" y="309.0222"/></g><text fill="#000000" font-family="sans-serif" font-size="14" lengthAdjust="spacing" textLength="68.7969" x="476.28" y="315.3689">loginTime</text><g data-visibility-modifier="PRIVATE_FIELD"><rect fill="none" height="6" style="stroke:#C82930;stroke-width:1;" width="6" x="464.28" y="325.3191"/></g><text fill="#000000" font-family="sans-serif" font-size="14" lengthAdjust="spacing" textLength="66.4043" x="476.28" y="331.6657">expiresAt</text><g data-visibility-modifier="PRIVATE_FIELD"><rect fill="none" height="6" style="stroke:#C82930;stroke-width:1;" width="6" x="464.28" y="341.6159"/></g><text fill="#000000" font-family="sans-serif" font-size="14" lengthAdjust="spacing" textLength="45.9854" x="476.28" y="347.9626">device</text><line style="stroke:#000000;stroke-width:0.5;" x1="457.28" x2="578.7107" y1="355.2644" y2="355.2644"/></g><!--reverse link User to Client--><g class="link" data-entity-1="ent0001" data-entity-2="ent0002" data-link-type="extension" data-source-line="43" id="lnk7"><path codeLine="43" d="M227.73,117.4569 C166.21,117.4569 100,117.4569 100,117.4569 C100,117.4569 100,210.4869 100,266.0869" fill="none" id="User-backto-Client" style="stroke:#181818;stroke-width:1;"/><polygon fill="none" points="245.73,117.4569,227.73,111.4569,227.73,123.4569,245.73,117.4569" style="stroke:#181818;stroke-width:1;stroke-linejoin:miter;stroke-miterlimit:10;"/><text fill="#000000" font-family="sans-serif" font-size="13" lengthAdjust="spacing" textLength="92.7139" x="7" y="114.9738">generalization</text></g><!--reverse link User to Employee--><g class="link" data-entity-1="ent0001" data-entity-2="ent0003" data-link-type="extension" data-source-line="44" id="lnk8"><path codeLine="44" d="M269.82,208.4469 C269.82,231.0469 269.82,237.3669 269.82,257.8969" fill="none" id="User-backto-Employee" style="stroke:#181818;stroke-width:1;"/><polygon fill="none" points="269.82,190.4469,263.82,208.4469,275.82,208.4469,269.82,190.4469" style="stroke:#181818;stroke-width:1;stroke-linejoin:miter;stroke-miterlimit:10;"/><text fill="#000000" font-family="sans-serif" font-size="13" lengthAdjust="spacing" textLength="92.7139" x="176.82" y="220.2438">generalization</text></g><!--reverse link Client to MembershipTier--><g class="link" data-entity-1="ent0002" data-entity-2="ent0004" data-link-type="aggregation" data-source-line="45" id="lnk9"><path codeLine="45" d="M100,359.2769 C100,381.7769 100,398.1069 100,422.7969" fill="none" id="Client-backto-MembershipTier" style="stroke:#181818;stroke-width:1;"/><polygon fill="none" points="100,347.2769,96,353.2769,100,359.2769,104,353.2769,100,347.2769" style="stroke:#181818;stroke-width:1;stroke-linejoin:miter;stroke-miterlimit:10;"/><text fill="#000000" font-family="sans-serif" font-size="13" lengthAdjust="spacing" textLength="78.9331" x="21" y="381.1038">aggregation</text><text fill="#000000" font-family="sans-serif" font-size="13" lengthAdjust="spacing" textLength="8.2393" x="91.3818" y="367.0208">n</text><text fill="#000000" font-family="sans-serif" font-size="13" lengthAdjust="spacing" textLength="8.271" x="91.529" y="412.0032">1</text></g><!--reverse link User to OTP--><g class="link" data-entity-1="ent0001" data-entity-2="ent0005" data-link-type="composition" data-source-line="46" id="lnk10"><path codeLine="46" d="M350.41,202.4469 C350.41,222.1369 350.41,231.1269 350.41,249.7669" fill="none" id="User-backto-OTP" style="stroke:#181818;stroke-width:1;"/><polygon fill="#181818" points="350.41,190.4469,346.41,196.4469,350.41,202.4469,354.41,196.4469,350.41,190.4469" style="stroke:#181818;stroke-width:1;stroke-linejoin:miter;stroke-miterlimit:10;"/><text fill="#000000" font-family="sans-serif" font-size="13" lengthAdjust="spacing" textLength="79.2568" x="351.41" y="216.1738">composition</text><text fill="#000000" font-family="sans-serif" font-size="13" lengthAdjust="spacing" textLength="8.271" x="345.989" y="210.2175">1</text><text fill="#000000" font-family="sans-serif" font-size="13" lengthAdjust="spacing" textLength="8.2393" x="338.9399" y="238.9927">n</text></g><!--reverse link User to LoginSession--><g class="link" data-entity-1="ent0001" data-entity-2="ent0006" data-link-type="composition" data-source-line="47" id="lnk11"><path codeLine="47" d="M384.27,117.4569 C445.79,117.4569 518,117.4569 518,117.4569 C518,117.4569 518,193.9369 518,249.6469" fill="none" id="User-backto-LoginSession" style="stroke:#181818;stroke-width:1;"/><polygon fill="#181818" points="372.27,117.4569,378.27,121.4569,384.27,117.4569,378.27,113.4569,372.27,117.4569" style="stroke:#181818;stroke-width:1;stroke-linejoin:miter;stroke-miterlimit:10;"/><text fill="#000000" font-family="sans-serif" font-size="13" lengthAdjust="spacing" textLength="79.2568" x="431.23" y="113.5238">composition</text><text fill="#000000" font-family="sans-serif" font-size="13" lengthAdjust="spacing" textLength="8.271" x="380.0643" y="113.6954">1</text><text fill="#000000" font-family="sans-serif" font-size="13" lengthAdjust="spacing" textLength="8.2393" x="509.5276" y="238.858">n</text></g><?plantuml-src TP7FRXCn4CRl-nIZ8750YbIu84LSsj2SQAdAyW2kTx8xnEknxDb0-7Fg4o1Ue18tRbp9CRn8tWJRkqb92dlP6Uitdx_v71PadVAg1MrK26TABshFdQscRDZ3e-UdBv_DPaKumjXNw0Va97_7o8oj_0ymP55M3e6zD5m8YK4ue-twjeFVNxVhRo3DTlrJvzyjZE62gouYvUQEOD7mzjTt2u-XR3Ptje4bRNxOeiYtmjk07ZuL0EDvPyobQZ7Lhc6BbrrxWpwrs2eo-JoEl8-xfDgpoQpsg0IhKoc-39fJGsYbLpMyKaPMLqnMGZfu5wi3-hnr4KBi-I1gFhyUf6-yihePZgKB-vaBJDP2GwwadN-9rSv_I_R-nWg3zkI4sEQMWeuF9jVHzLxmTNdLgx2uALTP92MUj__Wo6E8bcEpH4zpmce_-OfhicymX2W_hD0t9I_GzX54egJseLY5IzB9H96VuSNdyNWNtWHgjEYLeOygExydze4zO8RPaHq1Ht3qT7ISr0HKNNki_z9Cr9D4nwaKmmGqjuu3_HivsFU0_GC0?></g></svg>